<svg width="1235" height="786" viewBox="0 0 1235 786" fill="none" xmlns="http://www.w3.org/2000/svg">
<g clip-path="url(#clip0_14_17)">
<rect width="1235" height="786" fill="white"/>
<path d="M-294.359 313.403C-294.359 313.403 -297.35 350.94 -97.5881 377.007C102.174 403.073 194.179 297.253 367.373 334.257C479.627 358.24 489.641 449.994 610.187 445.823C730.732 441.653 832.335 316.531 937.382 336.342C1042.43 356.153 1076.87 406.202 1164.7 402.031C1252.52 397.86 1386.45 313.403 1386.45 313.403V675.602H-294.359V313.403Z" fill="#BFE7D0"/>
<path d="M-0.000583321 346.459C-0.000583321 346.459 -2.19838 392.012 144.58 423.645C291.359 455.277 358.961 326.861 486.219 371.766C568.699 400.871 576.057 512.218 664.63 507.156C753.203 502.095 827.857 350.256 905.042 374.297C982.228 398.338 1007.53 459.074 1072.07 454.013C1136.6 448.951 1235 346.459 1235 346.459V786.001H-0.000583321V346.459Z" fill="#27AE60"/>
</g>
<defs>
<clipPath id="clip0_14_17">
<rect width="1235" height="786" fill="white"/>
</clipPath>
</defs>
</svg>
